{"title":"The Masque of the Red Death(1964)MPEG-4[DaScubaDude]","uid":14052255,"size":890583366,"categoryP":"video","categoryS":"movies","magnet":"?xt=urn:btih:d95bca0fb5e66340cdc3a13847622bb508cca94d&amp;dn=The+Masque+of+the+Red+Death%281964%29MPEG-4%5BDaScubaDude%5D&amp;tr=udp%3A%2F%2Ftracker.leechers-paradise.org%3A6969&amp;tr=udp%3A%2F%2Fzer0day.ch%3A1337&amp;tr=udp%3A%2F%2Fopen.demonii.com%3A1337&amp;tr=udp%3A%2F%2Ftracker.coppersurfer.tk%3A6969&amp;tr=udp%3A%2F%2Fexodus.desync.com%3A6969","seeders":0,"leechers":2,"uploader":"dascuba","files":1,"time":1459065448,"description":"The Masque of the Red Death (1964)\r\nUnrated | 1h 29min | Horror | 24 June 1964 (USA)\r\nA European prince terrorizes the local peasantry while using his castle as a refuge against the &quot;Red Death&quot; plague that stalks the land.\r\nDirector: Roger Corman\r\nWriters: Charles Beaumont (screenplay), R. Wright Campbell (screenplay) \r\nStars: Vincent Price, Hazel Court, Jane Asher \r\n\r\nGeneral\r\nComplete name                            : The Masque of the Red DeathMASQUE_OF_THE_RED_DEATH_Title1.mp4\r\nFormat                                   : MPEG-4\r\nFormat profile                           : Base Media\r\nCodec ID                                 : isom\r\nFile size                                : 849 MiB\r\nDuration                                 : 1h 28mn\r\nOverall bit rate                         : 1 339 Kbps\r\nMovie name                               : MASQUE_OF_THE_RED_DEATH\r\nWriting application                      : Lavf54.6.100\r\n\r\nVideo\r\nID                                       : 1\r\nFormat                                   : AVC\r\nFormat/Info                              : Advanced Video Codec\r\nFormat profile                           :   \r\nFormat settings, CABAC                   : No\r\nFormat settings, ReFrames                : 6 frames\r\nCodec ID                                 : avc1\r\nCodec ID/Info                            : Advanced Video Coding\r\nDuration                                 : 1h 28mn\r\nBit rate                                 : 1 197 Kbps\r\nWidth                                    : 720 pixels\r\nHeight                                   : 404 pixels\r\nDisplay aspect ratio                     : 16:9\r\nFrame rate mode                          : Constant\r\nFrame rate                               : 29.970 fps\r\nColor space                              : YUV\r\nChroma subsampling                       : 4:2:0\r\nBit depth                                : 8 bits\r\nScan type                                : Progressive\r\nBits/(Pixel*Frame)                       : 0.137\r\nStream size                              : 759 MiB (89%)\r\n\r\nAudio\r\nID                                       : 2\r\nFormat                                   : AAC\r\nFormat/Info                              : Advanced Audio Codec\r\nFormat profile                           : LC\r\nCodec ID                                 : 40\r\nDuration                                 : 1h 28mn\r\nBit rate mode                            : Constant\r\nBit rate                                 : 135 Kbps\r\nChannel(s)                               : 2 channels\r\nChannel positions                        : Front: L R\r\nSampling rate                            : 44.1 KHz\r\nCompression mode                         : Lossy\r\nStream size                              : 85.7 MiB (10%)","torrent":{"xt":"urn:btih:d95bca0fb5e66340cdc3a13847622bb508cca94d","amp;dn":"The+Masque+of+the+Red+Death%281964%29MPEG-4%5BDaScubaDude%5D","amp;tr":["udp%3A%2F%2Ftracker.leechers-paradise.org%3A6969","udp%3A%2F%2Fzer0day.ch%3A1337","udp%3A%2F%2Fopen.demonii.com%3A1337","udp%3A%2F%2Ftracker.coppersurfer.tk%3A6969","udp%3A%2F%2Fexodus.desync.com%3A6969"],"infoHash":"d95bca0fb5e66340cdc3a13847622bb508cca94d","infoHashBuffer":{"type":"Buffer","data":[217,91,202,15,181,230,99,64,205,195,161,56,71,98,43,181,8,204,169,77]},"announce":[],"urlList":[]}}